<mxfile host="app.diagrams.net" modified="2022-02-15T19:37:38.120Z" agent="5.0 (X11; Linux x86_64) AppleWebKit/537.36 (KHTML, like Gecko) Chrome/98.0.4758.80 Safari/537.36" etag="22GrH7_8vEEEZwNuYub_" version="15.5.5" type="github">
  <diagram id="a65U2FFnalzU0QEMFO6s" name="Page-1">
    <mxGraphModel dx="1036" dy="461" grid="1" gridSize="10" guides="1" tooltips="1" connect="1" arrows="1" fold="1" page="1" pageScale="1" pageWidth="827" pageHeight="1169" math="0" shadow="0">
      <root>
        <mxCell id="0" />
        <mxCell id="1" parent="0" />
        <mxCell id="C9AHKk2VdGe3HMNGT3cj-1" value="Vertical Container" style="swimlane;" vertex="1" parent="1">
          <mxGeometry x="60" y="40" width="200" height="200" as="geometry" />
        </mxCell>
      </root>
    </mxGraphModel>
  </diagram>
</mxfile>
